 <svg  version="1.0" xmlns="http://www.w3.org/2000/svg"  width="300.000000pt" height="300.000000pt" viewBox="0 0 300.000000 300.000000"  preserveAspectRatio="xMidYMid meet">  <g transform="translate(0.000000,300.000000) scale(0.050000,-0.050000)" fill="#ffffff" stroke="none"> <path d="M581 5107 c-274 -230 -274 -1144 0 -1374 76 -65 508 -81 619 -23 106 55 188 242 217 495 l13 119 105 3 c125 4 123 11 55 -237 -184 -661 -231 -1674 -101 -2162 82 -308 366 -942 454 -1012 130 -106 327 -100 447 12 l70 67 235 1 c643 2 1347 221 1976 615 308 193 389 262 389 330 0 89 -81 122 -156 63 -648 -509 -1430 -802 -2174 -814 -176 -3 -327 -6 -336 -7 -8 -2 -51 -39 -94 -83 -88 -90 -166 -104 -237 -45 -89 75 -386 830 -434 1103 -70 403 -8 1276 132 1852 32 132 72 298 89 369 49 206 131 316 246 332 167 22 331 69 417 120 153 89 171 72 232 -216 l44 -211 -76 -113 c-41 -62 -116 -142 -167 -177 -219 -152 -292 -249 -327 -439 -54 -292 124 -736 258 -643 56 39 54 79 -10 219 -128 279 -79 525 133 669 130 88 260 227 309 330 l33 70 209 0 c115 0 216 0 224 1 8 0 21 -62 29 -137 19 -179 82 -347 165 -434 l66 -70 275 0 276 0 77 80 c236 249 234 1087 -3 1324 l-75 76 -275 0 -274 0 -65 -65 c-81 -82 -148 -259 -167 -441 l-14 -139 -210 3 c-246 5 -224 -12 -269 202 -71 344 -207 424 -483 283 -120 -61 -228 -91 -413 -114 -118 -14 -212 -102 -278 -261 l-44 -108 -117 0 c-64 0 -123 -2 -131 -5 -8 -3 -21 50 -28 117 -27 237 -104 429 -202 497 -85 60 -557 44 -634 -22z m246 -262 c-72 -211 -58 -305 45 -305 60 0 85 37 108 159 64 337 155 352 230 37 49 -210 44 -234 -46 -222 -56 7 -86 1 -110 -23 -79 -79 -14 -179 109 -167 91 8 96 -13 47 -220 -76 -319 -170 -299 -232 50 -29 166 -36 183 -78 196 -124 39 -155 -114 -73 -356 l47 -136 -92 6 c-303 20 -298 1116 5 1116 l86 0 -46 -135z m3043 100 c-113 -275 -112 -756 3 -1055 10 -27 -3 -31 -85 -26 l-98 6 -48 120 c-91 226 -80 717 20 915 44 85 242 124 208 40z m296 -40 c124 -289 103 -909 -34 -1024 -100 -83 -205 441 -152 759 48 295 126 405 186 265z"/> <path d="M4044 4516 c-58 -58 -9 -216 66 -216 47 0 90 61 90 127 0 75 -30 113 -90 113 -23 0 -53 -11 -66 -24z"/> <path d="M4468 3590 c-309 -67 -581 -295 -699 -584 l-47 -116 -116 6 c-225 12 -491 -115 -616 -295 -68 -99 -45 -112 -179 99 -127 201 -204 240 -255 130 -21 -46 -8 -73 156 -315 217 -323 256 -340 351 -156 198 384 548 449 1033 192 176 -94 244 -88 244 20 0 64 -288 249 -388 249 -89 0 17 226 178 378 352 333 842 293 1233 -101 167 -168 177 -174 226 -126 64 65 38 124 -124 286 -301 299 -638 411 -997 333z"/> </g> </svg> 